<?xml version="1.0" standalone="no"?>
<!DOCTYPE svg PUBLIC "-//W3C//DTD SVG 20010904//EN"
 "http://www.w3.org/TR/2001/REC-SVG-20010904/DTD/svg10.dtd">
<svg version="1.0" xmlns="http://www.w3.org/2000/svg"
 width="520.000000pt" height="520.000000pt" viewBox="0 0 520.000000 520.000000"
 preserveAspectRatio="xMidYMid meet">
<metadata>
Created by potrace 1.14, written by Peter Selinger 2001-2017
</metadata>
<g transform="translate(0.000000,520.000000) scale(0.100000,-0.100000)"
fill="#000000" stroke="none">
<path d="M2255 5000 c-513 -79 -959 -297 -1324 -646 -393 -377 -631 -826 -726
-1374 -22 -127 -31 -484 -16 -632 55 -530 287 -1031 657 -1417 380 -396 829
-632 1385 -728 149 -26 589 -26 738 0 523 90 948 302 1315 657 409 396 662
911 727 1479 15 138 6 515 -16 641 -96 549 -333 997 -726 1374 -372 356 -835
578 -1357 650 -160 23 -498 20 -657 -4z m589 -215 c398 -47 755 -188 1074
-424 113 -83 359 -331 445 -446 334 -452 483 -999 422 -1555 -111 -1019 -921
-1831 -1938 -1945 -558 -62 -1112 88 -1562 423 -111 82 -305 270 -392 377
-270 335 -430 719 -478 1146 -65 582 106 1163 478 1624 85 106 280 294 389
376 445 333 1016 488 1562 424z"/>
<path d="M1780 2740 l0 -1280 473 0 c479 0 604 7 725 37 212 52 378 175 466
342 45 88 65 157 76 270 22 232 -40 416 -187 558 -52 49 -196 133 -229 133
-26 0 -14 16 24 34 66 32 160 105 206 161 105 130 143 281 116 467 -31 214
-140 370 -322 460 -179 88 -269 98 -865 98 l-483 0 0 -1280z m1054 981 c172
-46 248 -128 278 -299 14 -82 2 -183 -31 -257 -39 -89 -138 -169 -254 -208
-56 -19 -91 -21 -384 -25 l-323 -4 0 404 c0 223 3 408 8 412 4 5 147 6 317 3
274 -4 319 -7 389 -26z m37 -1083 c195 -51 296 -178 314 -395 20 -229 -87
-397 -305 -480 -39 -15 -94 -18 -402 -21 l-358 -3 0 461 0 462 348 -5 c263 -3
361 -8 403 -19z"/>
</g>
</svg>
